<?xml version="1.0" encoding="utf-8"?>
<svg xmlns="http://www.w3.org/2000/svg" xmlns:xlink="http://www.w3.org/1999/xlink" style="margin: auto; background: none; display: block; shape-rendering: auto;" width="8px" height="8px" viewBox="0 0 100 100" preserveAspectRatio="xMidYMid">
<g transform="rotate(0 50 50)">
  <rect x="47" y="26.5" rx="3" ry="3.5" width="6" height="7" fill="#906dff">
    <animate attributeName="opacity" values="1;0" keyTimes="0;1" dur="0.4347826086956522s" begin="-0.3985507246376812s" repeatCount="indefinite"></animate>
  </rect>
</g><g transform="rotate(30 50 50)">
  <rect x="47" y="26.5" rx="3" ry="3.5" width="6" height="7" fill="#4e9bff">
    <animate attributeName="opacity" values="1;0" keyTimes="0;1" dur="0.4347826086956522s" begin="-0.3623188405797102s" repeatCount="indefinite"></animate>
  </rect>
</g><g transform="rotate(60 50 50)">
  <rect x="47" y="26.5" rx="3" ry="3.5" width="6" height="7" fill="#e1e5f4">
    <animate attributeName="opacity" values="1;0" keyTimes="0;1" dur="0.4347826086956522s" begin="-0.32608695652173914s" repeatCount="indefinite"></animate>
  </rect>
</g><g transform="rotate(90 50 50)">
  <rect x="47" y="26.5" rx="3" ry="3.5" width="6" height="7" fill="#fac861">
    <animate attributeName="opacity" values="1;0" keyTimes="0;1" dur="0.4347826086956522s" begin="-0.2898550724637681s" repeatCount="indefinite"></animate>
  </rect>
</g><g transform="rotate(120 50 50)">
  <rect x="47" y="26.5" rx="3" ry="3.5" width="6" height="7" fill="#906dff">
    <animate attributeName="opacity" values="1;0" keyTimes="0;1" dur="0.4347826086956522s" begin="-0.2536231884057971s" repeatCount="indefinite"></animate>
  </rect>
</g><g transform="rotate(150 50 50)">
  <rect x="47" y="26.5" rx="3" ry="3.5" width="6" height="7" fill="#4e9bff">
    <animate attributeName="opacity" values="1;0" keyTimes="0;1" dur="0.4347826086956522s" begin="-0.2173913043478261s" repeatCount="indefinite"></animate>
  </rect>
</g><g transform="rotate(180 50 50)">
  <rect x="47" y="26.5" rx="3" ry="3.5" width="6" height="7" fill="#e1e5f4">
    <animate attributeName="opacity" values="1;0" keyTimes="0;1" dur="0.4347826086956522s" begin="-0.1811594202898551s" repeatCount="indefinite"></animate>
  </rect>
</g><g transform="rotate(210 50 50)">
  <rect x="47" y="26.5" rx="3" ry="3.5" width="6" height="7" fill="#fac861">
    <animate attributeName="opacity" values="1;0" keyTimes="0;1" dur="0.4347826086956522s" begin="-0.14492753623188406s" repeatCount="indefinite"></animate>
  </rect>
</g><g transform="rotate(240 50 50)">
  <rect x="47" y="26.5" rx="3" ry="3.5" width="6" height="7" fill="#906dff">
    <animate attributeName="opacity" values="1;0" keyTimes="0;1" dur="0.4347826086956522s" begin="-0.10869565217391305s" repeatCount="indefinite"></animate>
  </rect>
</g><g transform="rotate(270 50 50)">
  <rect x="47" y="26.5" rx="3" ry="3.5" width="6" height="7" fill="#4e9bff">
    <animate attributeName="opacity" values="1;0" keyTimes="0;1" dur="0.4347826086956522s" begin="-0.07246376811594203s" repeatCount="indefinite"></animate>
  </rect>
</g><g transform="rotate(300 50 50)">
  <rect x="47" y="26.5" rx="3" ry="3.5" width="6" height="7" fill="#e1e5f4">
    <animate attributeName="opacity" values="1;0" keyTimes="0;1" dur="0.4347826086956522s" begin="-0.036231884057971016s" repeatCount="indefinite"></animate>
  </rect>
</g><g transform="rotate(330 50 50)">
  <rect x="47" y="26.5" rx="3" ry="3.5" width="6" height="7" fill="#fac861">
    <animate attributeName="opacity" values="1;0" keyTimes="0;1" dur="0.4347826086956522s" begin="0s" repeatCount="indefinite"></animate>
  </rect>
</g>
<!-- [ldio] generated by https://loading.io/ --></svg>