<?xml version="1.0" encoding="utf-8"?>
<svg xmlns="http://www.w3.org/2000/svg" xmlns:xlink="http://www.w3.org/1999/xlink" style="margin: auto; background: none; display: block; shape-rendering: auto;" width="68px" height="68px" viewBox="0 0 100 100" preserveAspectRatio="xMidYMid">
<g transform="rotate(0 50 50)">
  <rect x="47" y="26.5" rx="3" ry="3.5" width="6" height="7" fill="#906dff">
    <animate attributeName="opacity" values="1;0" keyTimes="0;1" dur="0.1s" begin="-0.09166666666666666s" repeatCount="indefinite"></animate>
  </rect>
</g><g transform="rotate(30 50 50)">
  <rect x="47" y="26.5" rx="3" ry="3.5" width="6" height="7" fill="#4e9bff">
    <animate attributeName="opacity" values="1;0" keyTimes="0;1" dur="0.1s" begin="-0.08333333333333333s" repeatCount="indefinite"></animate>
  </rect>
</g><g transform="rotate(60 50 50)">
  <rect x="47" y="26.5" rx="3" ry="3.5" width="6" height="7" fill="#e1e5f4">
    <animate attributeName="opacity" values="1;0" keyTimes="0;1" dur="0.1s" begin="-0.075s" repeatCount="indefinite"></animate>
  </rect>
</g><g transform="rotate(90 50 50)">
  <rect x="47" y="26.5" rx="3" ry="3.5" width="6" height="7" fill="#fac861">
    <animate attributeName="opacity" values="1;0" keyTimes="0;1" dur="0.1s" begin="-0.06666666666666667s" repeatCount="indefinite"></animate>
  </rect>
</g><g transform="rotate(120 50 50)">
  <rect x="47" y="26.5" rx="3" ry="3.5" width="6" height="7" fill="#906dff">
    <animate attributeName="opacity" values="1;0" keyTimes="0;1" dur="0.1s" begin="-0.058333333333333334s" repeatCount="indefinite"></animate>
  </rect>
</g><g transform="rotate(150 50 50)">
  <rect x="47" y="26.5" rx="3" ry="3.5" width="6" height="7" fill="#4e9bff">
    <animate attributeName="opacity" values="1;0" keyTimes="0;1" dur="0.1s" begin="-0.05s" repeatCount="indefinite"></animate>
  </rect>
</g><g transform="rotate(180 50 50)">
  <rect x="47" y="26.5" rx="3" ry="3.5" width="6" height="7" fill="#e1e5f4">
    <animate attributeName="opacity" values="1;0" keyTimes="0;1" dur="0.1s" begin="-0.041666666666666664s" repeatCount="indefinite"></animate>
  </rect>
</g><g transform="rotate(210 50 50)">
  <rect x="47" y="26.5" rx="3" ry="3.5" width="6" height="7" fill="#fac861">
    <animate attributeName="opacity" values="1;0" keyTimes="0;1" dur="0.1s" begin="-0.03333333333333333s" repeatCount="indefinite"></animate>
  </rect>
</g><g transform="rotate(240 50 50)">
  <rect x="47" y="26.5" rx="3" ry="3.5" width="6" height="7" fill="#906dff">
    <animate attributeName="opacity" values="1;0" keyTimes="0;1" dur="0.1s" begin="-0.025s" repeatCount="indefinite"></animate>
  </rect>
</g><g transform="rotate(270 50 50)">
  <rect x="47" y="26.5" rx="3" ry="3.5" width="6" height="7" fill="#4e9bff">
    <animate attributeName="opacity" values="1;0" keyTimes="0;1" dur="0.1s" begin="-0.016666666666666666s" repeatCount="indefinite"></animate>
  </rect>
</g><g transform="rotate(300 50 50)">
  <rect x="47" y="26.5" rx="3" ry="3.5" width="6" height="7" fill="#e1e5f4">
    <animate attributeName="opacity" values="1;0" keyTimes="0;1" dur="0.1s" begin="-0.008333333333333333s" repeatCount="indefinite"></animate>
  </rect>
</g><g transform="rotate(330 50 50)">
  <rect x="47" y="26.5" rx="3" ry="3.5" width="6" height="7" fill="#fac861">
    <animate attributeName="opacity" values="1;0" keyTimes="0;1" dur="0.1s" begin="0s" repeatCount="indefinite"></animate>
  </rect>
</g>
<!-- [ldio] generated by https://loading.io/ --></svg>