<?xml version="1.0" encoding="utf-8"?>
<svg xmlns="http://www.w3.org/2000/svg" xmlns:xlink="http://www.w3.org/1999/xlink" style="margin: auto; background: none; display: block; shape-rendering: auto;" width="68px" height="68px" viewBox="0 0 100 100" preserveAspectRatio="xMidYMid">
<g transform="rotate(0 50 50)">
  <rect x="47" y="26.5" rx="3" ry="3.5" width="6" height="7" fill="#906dff">
    <animate attributeName="opacity" values="1;0" keyTimes="0;1" dur="0.1607717041800643s" begin="-0.14737406216505894s" repeatCount="indefinite"></animate>
  </rect>
</g><g transform="rotate(30 50 50)">
  <rect x="47" y="26.5" rx="3" ry="3.5" width="6" height="7" fill="#4e9bff">
    <animate attributeName="opacity" values="1;0" keyTimes="0;1" dur="0.1607717041800643s" begin="-0.1339764201500536s" repeatCount="indefinite"></animate>
  </rect>
</g><g transform="rotate(60 50 50)">
  <rect x="47" y="26.5" rx="3" ry="3.5" width="6" height="7" fill="#e1e5f4">
    <animate attributeName="opacity" values="1;0" keyTimes="0;1" dur="0.1607717041800643s" begin="-0.12057877813504823s" repeatCount="indefinite"></animate>
  </rect>
</g><g transform="rotate(90 50 50)">
  <rect x="47" y="26.5" rx="3" ry="3.5" width="6" height="7" fill="#fac861">
    <animate attributeName="opacity" values="1;0" keyTimes="0;1" dur="0.1607717041800643s" begin="-0.10718113612004287s" repeatCount="indefinite"></animate>
  </rect>
</g><g transform="rotate(120 50 50)">
  <rect x="47" y="26.5" rx="3" ry="3.5" width="6" height="7" fill="#906dff">
    <animate attributeName="opacity" values="1;0" keyTimes="0;1" dur="0.1607717041800643s" begin="-0.09378349410503752s" repeatCount="indefinite"></animate>
  </rect>
</g><g transform="rotate(150 50 50)">
  <rect x="47" y="26.5" rx="3" ry="3.5" width="6" height="7" fill="#4e9bff">
    <animate attributeName="opacity" values="1;0" keyTimes="0;1" dur="0.1607717041800643s" begin="-0.08038585209003216s" repeatCount="indefinite"></animate>
  </rect>
</g><g transform="rotate(180 50 50)">
  <rect x="47" y="26.5" rx="3" ry="3.5" width="6" height="7" fill="#e1e5f4">
    <animate attributeName="opacity" values="1;0" keyTimes="0;1" dur="0.1607717041800643s" begin="-0.0669882100750268s" repeatCount="indefinite"></animate>
  </rect>
</g><g transform="rotate(210 50 50)">
  <rect x="47" y="26.5" rx="3" ry="3.5" width="6" height="7" fill="#fac861">
    <animate attributeName="opacity" values="1;0" keyTimes="0;1" dur="0.1607717041800643s" begin="-0.05359056806002144s" repeatCount="indefinite"></animate>
  </rect>
</g><g transform="rotate(240 50 50)">
  <rect x="47" y="26.5" rx="3" ry="3.5" width="6" height="7" fill="#906dff">
    <animate attributeName="opacity" values="1;0" keyTimes="0;1" dur="0.1607717041800643s" begin="-0.04019292604501608s" repeatCount="indefinite"></animate>
  </rect>
</g><g transform="rotate(270 50 50)">
  <rect x="47" y="26.5" rx="3" ry="3.5" width="6" height="7" fill="#4e9bff">
    <animate attributeName="opacity" values="1;0" keyTimes="0;1" dur="0.1607717041800643s" begin="-0.02679528403001072s" repeatCount="indefinite"></animate>
  </rect>
</g><g transform="rotate(300 50 50)">
  <rect x="47" y="26.5" rx="3" ry="3.5" width="6" height="7" fill="#e1e5f4">
    <animate attributeName="opacity" values="1;0" keyTimes="0;1" dur="0.1607717041800643s" begin="-0.01339764201500536s" repeatCount="indefinite"></animate>
  </rect>
</g><g transform="rotate(330 50 50)">
  <rect x="47" y="26.5" rx="3" ry="3.5" width="6" height="7" fill="#fac861">
    <animate attributeName="opacity" values="1;0" keyTimes="0;1" dur="0.1607717041800643s" begin="0s" repeatCount="indefinite"></animate>
  </rect>
</g>
<!-- [ldio] generated by https://loading.io/ --></svg>