<svg height="133" viewBox="0 0 170 133" width="170" xmlns="http://www.w3.org/2000/svg"><g fill="none"><path d="m44.0349464 39.7386971c-3.9000001-7-11.2000026-11.5-19.2000026-12-12.8999996-.7-23.99999915 9.2000007-24.79999916 22.2000007-.69999999 13 9.20000066 24.0999954 22.20000066 24.7999954l65.2999973-.1999969c13.0000004.7 24.1000034-9.2000008 24.8000034-22.2000008s-9.200005-24.0999992-22.2000049-24.7999992c-2.2-.1-4.4000001.1-6.5.5.3-14.6999998-11.2999945-27.09999959-26.0999947-27.99999956-15.3000001-.80000002-28.4000011 10.90000016-29.3000011 26.20000036l-.1000004 1.8999996" fill="#e4e4ed" transform="translate(57.533997)"/><path d="m99.2042007 86.1481857c-1.7999999-1.2999999-2.100003-3.7999985-.800003-5.5999984 2.9000003-4 4.6000033-8.6999984 4.8000033-13.5999985.3-6.5999999-2.000008-12.9000068-6.5000079-17.8000069-4.5-4.9000001-10.4999986-7.7-17.0999985-8-2.2999999-.1-4.600003.0999985-6.800003.5999985-1.2000001.3-2.3999939.0000008-3.3999939-.7999992-1-.8000001-1.5-1.8999985-1.5-3.0999985 0-16-12.5000057-29.19999965-28.6000061-29.89999964-8-.30000001-15.5999961 2.40000014-21.4999962 7.80000024-5.9000001 5.4-9.2999998 12.8000001-9.69999981 20.8000001l-.09999847 2.3999978c-.1 2.2-1.90000105 3.8999992-4.200001 3.7999992-2.20000005-.1-3.90000117-1.9999969-3.80000116-4.199997l.10000037-2.4000015c.5-10.1000004 4.7999995-19.3999982 12.29999947-26.29999827 7.5-6.90000009 17.1999979-10.30000083 27.2999983-9.80000083 18.7000008.80000001 33.7000015 15.0999972 35.9000015 33.1999976 1.5-.1 2.9000016-.1999985 4.4000016-.0999985 8.6999998.4 16.8000044 4.1999984 22.7000048 10.5999985 5.9 6.4000001 8.9 14.800004 8.5 23.5000038-.3 6.5-2.500009 12.8000002-6.400009 18-.8 1.1-1.999997 1.7000046-3.199997 1.7000046-.8 0-1.6999943-.3000031-2.3999943-.8000031z" fill="#2f2f2f" transform="translate(33.929749 7.390625)"/><path d="m18.7339363 62.2326508c-11.89999961-5.6999999-19.29999944-17.8000021-18.69999942-31.000002.80000001-18 16.10000092-31.99999995 34.10000092-31.19999993 11.3000002.5 21.699997 6.99999826 27.199997 16.79999843 1.1 1.9.4000015 4.4000015-1.5999985 5.4000015-1.9 1.1000001-4.4000015.3999978-5.4000015-1.6000022-4.0999999-7.5-12-12.29999984-20.5-12.69999985-13.6000004-.5-25.19999828 9.99999715-25.7999983 23.59999755-.40000001 9.8999996 5.1000013 19.1000032 14.1000013 23.4000034 2 1 2.7999996 3.3000031 1.8999997 5.3000031-.7 1.5-2.1000004 2.4000015-3.6000004 2.4000015-.6000001 0-1.2000008-.1000015-1.7000008-.4000015z" fill="#2f2f2f" transform="translate(0 41.706055)"/><g fill="#57aaff"><path d="m1.20000005 25.9000053c-1.60000003-1.6-1.60000003-4.1000045 0-5.7000045l18.79999995-19.00000075c1.6000038-1.60000003 4.1000007-1.60000003 5.7000008 0 1.6 1.60000002 1.6 4.10000431 0 5.70000434l-18.79999641 19.00000091c-.80000002.8000001-1.90000439 1.199997-2.90000439 1.199997s-2-.3999969-2.79999995-1.199997z" transform="translate(100.533936 100.438721)"/><path d="m1.21280169 21.4128056c-1.60000002-1.5-1.59999847-4.1000036-.09999847-5.7000037l14.00000028-14.50000021c1.5-1.60000002 4.0999959-1.59999847 5.699996-.09999847 1.6 1.5 1.5999984 4.09999716.0999984 5.69999719l-13.99999902 14.49999909c-.80000001.8-1.8000015 1.2000045-2.90000152 1.2000045-1 0-1.99999565-.3999985-2.79999567-1.0999984z" transform="translate(91.72113 81.925781)"/><path d="m1.21280169 21.4128056c-1.60000002-1.5-1.59999847-4.1000036-.09999847-5.7000037l14.00000028-14.50000021c1.5-1.60000002 4.0999959-1.59999847 5.699996-.09999847 1.6 1.5 1.6000061 4.09999716.1000061 5.69999719l-13.99999909 14.49999909c-.89999998.8-1.90000152 1.1999969-2.90000152 1.1999969s-2.00000328-.3999909-2.8000033-1.0999908z" transform="translate(64.421143 109.72583)"/><path d="m1.21280169 21.4128017c-1.60000002-1.5-1.59999847-4.0999959-.09999847-5.699996l14.00000028-14.50000007c1.5-1.60000003 4.0999959-1.60000611 5.699996-.1000061 1.6 1.5 1.6000061 4.10000467.1000061 5.70000469l-13.99999909 14.49999908c-.80000001.8-1.8000015 1.1999969-2.90000152 1.1999969-1 0-2.00000328-.3999985-2.8000033-1.0999985z" transform="translate(64.921143 82.125977)"/></g><path d="m6.20381021 45.3652229c-1.60000002-1.6-1.60000002-4.0999969 0-5.6999969l11.49999759-11.600008-13.99999735-.8999939c-1.5-.1-2.89999967-1.1-3.39999968-2.5-.60000002-1.4-.30000072-3.1000046.7999993-4.2000046l17.70000003-19.19999671c1.5-1.60000003 4.0000007-1.70000458 5.7000008-.20000458 1.6 1.5 1.6999969 4.00000477.1999969 5.70000482l-12.0999975 12.99999947 14.4000006 1c1.6.1000001 2.9 1.0999985 3.5 2.5999985s.1999985 3.0999969-.9000015 4.199997l-17.6999999 17.900011c-.8999999.7-1.8999977 1.0999909-2.89999766 1.0999909-1 0-2.00000161-.399997-2.80000163-1.199997z" fill="#ff7a56" transform="translate(28.43013 84.173584)"/></g></svg>