<svg height="147" viewBox="0 0 157 147" width="157" xmlns="http://www.w3.org/2000/svg" xmlns:xlink="http://www.w3.org/1999/xlink"><linearGradient id="a" x1="28.82984%" x2="64.197312%" y1="4.715277%" y2="98.10779%"><stop offset="0" stop-color="#b9a0ff"/><stop offset="1" stop-color="#855aff"/></linearGradient><g fill="none"><path d="m109.723164 76.5443802c-20.9-5-33.6999957-25.8999977-28.7999956-46.699997 5-20.89999958 25.8999976-33.69999929 46.6999966-28.7999992 1.7.40000001 3.300002.89999998 4.900002 1.5-9.5 12.1999998-7.399997 29.7999992 4.800003 39.2999992 5.4 4.1999998 12.199994 6.3000016 19.099994 5.9000016-5 20.8999996-25.900001 33.6999955-46.7 28.7999954z" fill="url(#a)"/><path d="m3.19999981 7.98721838c-.30000001 0-.4999997-.10000076-.79999971-.20000076-.20000001-.1-.50000017-.20000153-.70000017-.40000153-.19999993-.1-.40000002-.3-.60000003-.5-.2-.2-.29999993-.39999847-.49999994-.59999847-.09999996-.20000001-.20000001-.50000076-.30000001-.70000077-.1-.2-.20000005-.49999922-.20000005-.79999923-.0999999-.30000001-.0999999-.49999923-.0999999-.79999924s0-.50000304.0999999-.80000305c0-.2.10000005-.49999695.20000005-.69999695s.20000005-.50000076.39999998-.70000076c.2-.20000001.30000007-.40000229.5-.60000229.89999997-.89999998 2.30000007-1.39999853 3.60000026-1.09999851.30000001 0 .50000018.10000077.80000019.20000077.2.1.49999981.19999768.69999981.39999768.19999981.2.39999943.30000006.59999943.50000006.10000038.2.30000057.40000075.40000057.70000076.1.2.29999962.50000076.39999962.70000076.1.20000001.19999981.50000076.19999981.70000077 0 .30000001.10000038.49999922.10000038.79999923 0 .30000002 0 .49999923-.10000038.79999924 0 .2-.09999981.49999923-.19999981.79999924-.1.2-.19999981.50000076-.39999962.70000076-.1.2-.30000019.40000229-.5.60000229-.2.2-.40000038.4-.60000038.5-.19999981.2-.3999998.29999771-.69999981.39999771-.2.1-.5.20000029-.80000019.20000029-.19999981 0-.49999981 0-.69999981 0-.30000001 0-.5 0-.80000019-.099998z" fill="#2f2f2f" transform="translate(2.723145 30.457275)"/><path d="m3.30000019 7.98721457c-.2-.10000001-.50000113-.09999695-.80000019-.19999695-.20000096-.1-.5-.20000153-.69999981-.40000153-.2-.1-.40000038-.3-.60000038-.5-.19999981-.2-.4-.39999847-.5-.59999847-.1-.20000001-.29999962-.50000076-.39999962-.70000077-.1-.2-.20000076-.49999922-.20000076-.79999923s-.09999943-.50000304-.09999943-.80000305c0-.30000002 0-.49999923.09999943-.79999924 0-.2.10000076-.50000076.20000076-.70000076.1-.20000001.19999981-.49999695.39999962-.69999695.1-.20000001.30000019-.40000229.5-.60000229.89999998-.89999998 2.30000019-1.39999853 3.60000038-1.09999851.30000001.1.49999923.10000077.79999924.20000077.2.1.50000076.19999768.70000076.39999768.19999981.1.40000038.30000006.60000038.50000006.20000001.2.3.40000228.5.60000229.09999943.2.29999962.49999694.39999962.69999695.1.2.19999981.50000076.19999981.70000076.09999943.30000001.09999943.49999922.09999943.79999924 0 .30000001 0 .50000304-.09999943.80000305-.10000096.2-.09999981.49999922-.19999981.79999923-.1.20000001-.19999961.50000076-.39999962.70000077-.2.2-.29999999.39999847-.5.59999847-.2.2-.40000057.4-.60000038.5-.2.2-.40000075.30000153-.70000076.40000153-.20000001.1-.49999923.19999695-.79999924.19999695-.1.10000181-.40000075.10000181-.70000076.10000181s-.49999923 0-.79999924-.10000181z" fill="#9975ff" transform="translate(19.323181 33.157227)"/><path d="m1.20000076 6.887218c-.80000001-.69999999-1.20000076-1.80000115-1.20000076-2.80000115 0-.30000001 0-.49999946.10000038-.79999947 0-.30000001.09999886-.50000113.19999886-.80000115.1-.2.20000076-.49999885.40000152-.69999885.20000001-.2.29999924-.40000038.5-.60000038.89999998-.89999998 2.29999924-1.40000039 3.59999848-1.10000038.20000076 0 .50000113.10000076.80000114.20000076.2.1.49999885.19999961.69999886.39999962.20000076.2.40000038.29999999.60000038.5.2.2.4000019.40000038.50000191.60000038.09999847.2.29999771.49999885.39999771.69999885.1.20000001.20000076.50000114.20000076.80000115s.09999847.49999946.09999847.79999947c0 1.10000003-.39999884 2.10000116-1.19999885 2.80000115-.2.2-.39999962.4-.60000038.5-.20000001.1-.49999886.29999962-.69999886.39999962s-.50000113.19999885-.80000114.19999885c-.20000001.09999991-.49999923.09999991-.79999924.09999991-1.10000002 0-2.09999925-.39999837-2.79999924-1.19999838z" fill="#9975ff" transform="translate(29.023193 13.357178)"/><path d="m84.1999969 91.0316544c-.8999999-2 0-4.4000031 2-5.3000031 8.1999999-3.7 13.5000016-11.5999985 13.9000011-20.5999985.3-6.4000001-1.8999963-12.5000009-6.1999965-17.2000007s-10.1999998-7.4000008-16.5-7.7000008c-2.2-.1-4.4000015.0999985-6.6000061.5999985-1.2.3-2.3999939.0000008-3.3999939-.7999993-1-.8-1.5-1.8999984-1.5-3.0999984-.1-15.5-12.2000046-28.19999966-27.7000046-28.89999965-7.6999969-.30000001-15.0999951 2.40000055-20.6999969 7.60000035-5.6999979 5.1999998-9 12.3000002-9.39999962 20l-.10000038 2.2999993-8-.3000031.10000038-2.2999992c.39999962-9.8999996 4.70000172-18.8999977 11.89999962-25.59999754 7.2000017-6.69999981 16.6999989-10.10000004 26.5999985-9.70000003 18.2000007.80000001 32.7000015 14.59999867 34.9000015 32.19999907 1.4-.1 2.7999985-.0999985 4.0999985-.0999985 8.5.4 16.3000059 3.9999991 22.1000061 10.2999993 5.6999994 6.3000002 8.6999874 14.3999977 8.2999954 22.8999977-.5 12-7.699999 22.6000061-18.5999985 27.6000061-.5.3-1.1000061.4000015-1.6000061.4000015-1.5 0-2.9999984-.9000031-3.5999985-2.300003z" fill="#2f2f2f" transform="translate(32.923157 21.473633)"/><path d="m12.9231625 57.4333305c-8.50000004-6.3000002-13.29999952-16.3999977-12.89999951-26.9999981.80000001-17.5 15.70000061-31.20000084 33.20000061-30.40000083 11.1000004.5 20.9999976 6.59999878 26.3999977 16.29999863 1.1 1.8999999.4 4.4000015-1.5 5.4000015-1.9 1.1-4.3999977.4-5.3999977-1.5-4.0999999-7.3000002-11.4000006-11.79999982-19.7000008-12.19999983-13.1999998-.60000002-24.39999993 9.59999943-24.99999996 22.69999983-.30000001 8 3.30000016 15.499999 9.60000036 20.1999988 1.8 1.3 2.0999992 3.8000062.7999993 5.6000061-.7 1.1000001-1.8999994 1.699997-3.0999995 1.699997-.8 0-1.7000006-.3000031-2.4000005-.8000031z" fill="#2f2f2f" transform="translate(0 54.771973)"/><g fill="#57aaff"><path d="m0 16.5999985v-12.5999985c0-2.20000005 1.79999995-4 4-4s4 1.79999995 4 4v12.5999985c0 2.2-1.79999995 4-4 4s-4-1.8-4-4z" transform="translate(85.123169 104.305176)"/><path d="m0 12.6999969v-8.6999969c0-2.20000005 1.79999995-4 4-4s4 1.79999995 4 4v8.6999969c0 2.2000001-1.79999995 4-4 4s-4-1.7999999-4-4z" transform="translate(102.423157 123.505371)"/><path d="m.30419198 13.3041954-.29999923-9.19999647c-.1-2.20000005 1.60000165-4.10000618 3.90000161-4.10000618 2.20000004-.1 4.09999799 1.60000165 4.09999799 3.90000161l.30000305 9.30000254c.10000001 2.2000001-1.60000109 4.0999985-3.90000104 4.0999985 0-.1-.00000229-.0999985-.10000229-.0999985-2.09999991 0-3.90000009-1.7000014-4.00000009-3.9000015z" transform="translate(63.018982 97.201172)"/><path d="m0 12.5999985v-8.5999985c0-2.20000005 1.79999995-4 4-4s4 1.79999995 4 4v8.5999985c0 2.2-1.79999995 4-4 4s-4-1.8-4-4z" transform="translate(70.323181 129.305176)"/><path d="m0 16.1999969v-12.1999969c0-2.20000005 1.79999995-4 4-4s4 1.79999995 4 4v12.1999969c0 2.2000001-1.79999995 4-4 4s-4-1.7999999-4-4z" transform="translate(43.523193 112.805176)"/><path d="m0 14.0999985v-10.0999985c0-2.20000005 1.79999995-4 4-4s4 1.79999995 4 4v10.0999985c0 2.2-1.79999995 4-4 4s-4-1.8-4-4z" transform="translate(24.523193 123.405274)"/></g></g></svg>