<svg height="118" viewBox="0 0 124 118" width="124" xmlns="http://www.w3.org/2000/svg" xmlns:xlink="http://www.w3.org/1999/xlink"><linearGradient id="a"><stop offset="0" stop-color="#409fff"/><stop offset="1" stop-color="#86c2ff"/></linearGradient><linearGradient id="b" x1="51.15745%" x2="48.456176%" xlink:href="#a" y1="90.27094%" y2="11.952584%"/><linearGradient id="c" x1="51.209131%" x2="48.507857%" xlink:href="#a" y1="90.270943%" y2="11.952586%"/><linearGradient id="d" x1="51.273096%" x2="48.571822%" xlink:href="#a" y1="90.223387%" y2="11.905031%"/><g fill="none"><path d="m37.1750488 64.5001221c8.5 8.5 8.5 22.3000488 0 30.8000488-8.5 8.5000001-22.3000488 8.5000001-30.8000488 0-8.5-8.5-8.5-22.3000488 0-30.8000488l15.4001465-15.4000244z" fill="url(#b)"/><path d="m117.275146 64.5001221c8.5 8.5 8.5 22.3000488 0 30.8000488-8.5 8.5000001-22.3000483 8.5000001-30.8000483 0-8.5-8.5-8.5-22.3000488 0-30.8000488l15.3999023-15.4000244z" fill="url(#c)"/><path d="m1.19995117 6.95049906c-.2-.20000001-.4-.39997559-.5-.59997559s-.29990234-.40007323-.39990234-.70007324c-.1-.2-.20019531-.49992675-.20019531-.79992676s-.09985352-.50004881-.09985352-.80004883c0-.30000001-.00014649-.50004881.09985352-.80004882.1-.30000002.10019531-.49992675.20019531-.79992676.1-.20000001.19990234-.50007312.39990234-.70007313.1-.2.3-.39997558.5-.59997558.89999998-.89999998 2.30009771-1.29997561 3.60009766-1.09997561.2 0 .49995117.09995116.69995117.19995117.2.1.49995117.20002444.69995117.40002444s.40009766.3.60009766.5.4.39997558.5.59997558c.1.20000001.29990234.50007312.39990234.70007313.1.2.19995117.49992674.19995117.79992676.10000001.2.10009766.50004881.10009766.80004882 0 .30000002-.00009765.50004882-.10009766.80004883-.1.2-.09995117.49992675-.19995117.79992676s-.19990234.50007324-.39990234.70007324c-.1.2-.3.39997558-.5.59997559-.2.2-.40009766.29999999-.60009766.5-.2.1-.39995116.30002441-.69995117.40002441-.2.1-.49995117.19995165-.69995117.19995165-.30000001.09997559-.50004882.09997559-.80004883.09997559-1.10000002 0-2.10004884-.39995164-2.80004883-1.19995165z" fill="#2d58ff" transform="translate(1.975098 16.349609)"/><path d="m1.20019531 6.87492657c-.2-.20000001-.4-.39997559-.5-.59997559s-.30014648-.49995117-.40014648-.69995117-.19995117-.50004882-.19995117-.80004883c-.10000001-.30000001-.10009766-.49992651-.10009766-.79992652 0-1.10000002.4001953-2.10004884 1.20019531-2.80004883.20000001-.2.39985352-.40000005.59985352-.50000006.2-.1.49995117-.30002441.69995117-.40002441s.50004882-.19995116.80004883-.19995116c.5-.1 1.00009763-.1 1.60009765 0 .20000001 0 .50004882.09995116.80004883.19995116.20000001.1.49995117.20002441.69995117.40002441.20000001.10000001.39985352.30000006.59985352.50000006.2.20000001.4.39997559.5.59997559s.30014648.50007324.40014648.70007324c.10000001.2.19995118.49992675.19995118.79992676s.10009765.50004858.10009765.80004859-.00009765.49992675-.10009765.79992676c-.10000001.30000001-.09995117.50004881-.19995118.80004883-.1.2-.20014648.49995116-.40014648.69995117-.1.2-.3.40009765-.5.60009765-1 .69999999-2 1.09997559-3 1.09997559-1.10000002 0-2.0998047-.40007323-2.79980469-1.20007324z" fill="#57aaff" transform="translate(58.574951 109.225098)"/><path d="m1.19995117 6.88726807c-.80000001-.69999999-1.19995117-1.80004883-1.19995117-2.80004883 0-.30000001-.00014649-.50004882.09985352-.80004883.1-.2.09995117-.49992675.19995117-.79992676.1-.2.20014648-.50007336.40014648-.70007336.1-.2.3-.39997558.5-.59997558.89999998-.89999998 2.29985357-1.39997559 3.59985352-1.09997558.2.10000001.50004881.09995119.80004883.19995119.2.1.49995116.20002438.69995117.40002439.2.1.40009765.29999999.60009765.5.20000001.2.4.39997558.5.59997558.20000001.2.29990235.50007336.39990235.70007336.1.20000001.20019531.49992675.20019531.79992676.1.30000001.09985352.50004882.09985352.80004883 0 1.10000002-.39995116 2.10004884-1.19995118 2.80004883-.80000001.80000001-1.89990234 1.19995117-2.89990234 1.19995117-1.10000002 0-2.10004884-.39995116-2.80004883-1.19995117z" fill="#2d58ff" transform="translate(108.775146 20.812988)"/><path d="m77.875 15.4000244c8.5 8.5 8.5 22.3000488 0 30.8000488s-22.3000488 8.5-30.8000488 0-8.5-22.3000488 0-30.8000488l15.4001465-15.4000244z" fill="url(#d)"/></g></svg>