<svg height="125" viewBox="0 0 125 125" width="125" xmlns="http://www.w3.org/2000/svg" xmlns:xlink="http://www.w3.org/1999/xlink"><linearGradient id="a" x1="50.044297%" x2="50.044297%" y1="99.967737%" y2=".065515%"><stop offset="0" stop-color="#ffc14c"/><stop offset="1" stop-color="#ffd04d"/></linearGradient><g fill="none" fill-rule="evenodd"><g fill="#ffc44c" fill-rule="nonzero"><path d="m1.19999695 6.88721609c-.80000001-.69999999-1.19999695-1.79999924-1.19999695-2.79999924 0-.30000001 0-.50000304.09999847-.80000305.10000001-.2.09999695-.49999922.19999695-.79999923.1-.20000001.20000458-.50000076.40000153-.70000077.1-.2.30000305-.39999847.5-.59999847.2-.2.39999847-.30000006.59999847-.50000006.20000458-.1.50000458-.3000015.70000458-.4000015s.5-.19999695.79999542-.19999695c1.29999995-.30000002 2.70000458.19999853 3.60000611 1.09999851.2.2.39999999.39999847.5.59999847.09999847.20000001.29999389.50000076.39999389.70000077.1.2.20000458.49999922.20000458.79999923s.09999847.50000304.09999847.80000305c0 1-.39999693 2.09999925-1.19999694 2.79999924-.90000153.80000001-1.90000153 1.20000029-2.90000153 1.20000029-1.10000002 0-2.10000306-.40000028-2.80000305-1.20000029z" transform="translate(116.900024 58.299988)"/><path d="m1.19999695 6.78721666c-.19999695-.2-.3-.3999999-.5-.5999999-.1-.2-.29999771-.3999998-.39999771-.69999981-.1-.2-.20000077-.50000018-.20000077-.80000019s-.09999847-.49999994-.09999847-.79999995c0-1 .39999694-2.10000021 1.19999695-2.80000019.2-.10000001.40000228-.2999998.60000229-.3999998.20000076-.1.40000075-.30000012.70000076-.40000013.2-.1.5-.20000004.79999924-.20000004 1.29999995-.30000002 2.70000076.20000013 3.59999847 1.10000011.69999999.69999999 1.10000229 1.79999995 1.10000229 2.79999995 0 .30000001 0 .49999994-.10000229.79999995 0 .30000002-.10000076.50000018-.20000076.80000019-.1.20000001-.19999695.39999991-.29999924.59999991-.1.2-.3.3999999-.5.5999999-.2.20000001-.39999771.3-.59999847.5-.20000001.20000001-.50000076.3000001-.70000077.4000001-.2.1-.49999922.20000028-.79999923.20000028-.20000001.09999991-.49999923.09999991-.79999924.09999991-1 0-2.10000306-.40000027-2.80000305-1.20000029z" transform="translate(58.400024)"/><path d="m3.29999924 7.88721991c-.20000001-.10000001-.49999923-.10000458-.79999924-.20000458-.2-.1-.5-.20000152-.70000076-.40000153-.20000001-.1-.39999847-.29999999-.59999848-.5-.20000076-.2-.29999999-.39999847-.5-.59999847-.1-.2-.30000152-.39999694-.40000152-.69999695-.1-.2-.19999695-.50000457-.19999695-.70000458 0-.30000001-.10000229-.49999541-.10000229-.79999542 0-1 .40000075-2.10000306 1.20000076-2.80000305.20000001-.2.39999847-.40000006.59999848-.50000006.20000076-.2.40000075-.3000015.70000076-.4000015.2-.1.5-.19999695.79999924-.19999695 1.29999995-.30000002 2.70000076.19999853 3.60000229 1.09999851.2.2.39999999.39999847.5.59999847.09999847.20000001.29999771.50000458.39999771.70000458s.20000076.49999541.20000076.79999542c.10000229.30000001.10000229.50000304.10000229.80000305 0 .30000002 0 .50000304-.10000229.80000306 0 .2-.10000076.49999694-.20000076.69999694-.1.20000001-.19999771.49999695-.39999771.69999695-.10000001.20000001-.3.4000061-.5.60000611-.69999999.60000002-1.69999922 1.09999847-2.79999924 1.09999847-.30000001 0-.50000304 0-.80000305-.09999847z" transform="translate(58.300049 116.900024)"/><path d="m1.20000005 6.88721609c-.80000001-.69999999-1.20000005-1.69999921-1.20000005-2.79999924 0-.30000001 0-.50000304.0999999-.80000305 0-.2.10000005-.49999922.20000005-.79999923.1-.20000001.20000005-.50000076.4000001-.70000077.1-.2.29999995-.39999847.5-.59999847.2-.2.3999999-.30000006.5999999-.50000006.20000005-.1.50000005-.3000015.70000005-.4000015s.5-.19999695.79999995-.19999695c1.29999995-.30000002 2.70000005.19999853 3.60000015 1.09999851.0999999.30000001.30000009.50000076.40000009.70000076s.29999962.50000076.39999962.70000076c.1.20000001.20000029.49999923.20000029.79999924.0999999.2.0999999.50000076.0999999.70000076 0 1-.3999998 2.09999925-1.19999981 2.79999924-.69999999.80000001-1.80000019 1.20000029-2.80000019 1.20000029-1.10000002 0-2.09999996-.40000028-2.79999995-1.20000029z" transform="translate(0 58.299988)"/><path d="m3.30000305 7.98721647c-.30000305-.1-.50000304-.10000076-.80000305-.20000076-.2-.1-.5-.19999962-.69999695-.39999962-.2-.1-.39999847-.3-.59999847-.5-.70000458-.69999999-1.20000458-1.79999924-1.20000458-2.79999924 0-.30000001 0-.50000137.1000061-.80000138 0-.2.09999695-.49999922.19999695-.79999924.1-.2.19999695-.49999968.40000153-.69999969.1-.2.29999542-.40000037.5-.60000038.2-.2.39999847-.4.59999847-.5.19999695-.2.49999695-.29999964.69999695-.39999965.2-.1.5-.19999979.80000305-.19999979 1.29999995-.30000001 2.69999695.19999947 3.59999848 1.09999944.2.20000001.29999999.40000038.5.60000038.09999847.20000001.30000152.49999969.40000152.69999969.1.20000001.19999695.49999923.19999695.79999924s.1000061.50000137.1000061.80000138c0 1.10000003-.40000456 2.09999925-1.20000457 2.79999924-.80000002.80000001-1.79999543 1.20000029-2.79999543 1.20000029-.30000001 0-.50000304 0-.80000305-.09999991z" transform="translate(99.699951 17)"/><path d="m1.19999981 6.77499676c-.80000001-.80000001-1.19999981-1.79999519-1.19999981-2.79999519s.3999998-2.10000306 1.19999981-2.80000305c.2-.2.39999942-.40000006.59999943-.50000006.20000076-.1.50000076-.30000152.70000076-.40000152s.5-.19999694.79999924-.19999694c.5-.1 1.00000035-.1 1.60000038 0 .2 0 .50000076.09999694.70000076.19999694s.49999885.20000152.69999886.40000152c.20000076.1.40000038.30000006.60000038.50000006.80000001.80000001 1.20000076 1.80000305 1.20000076 2.80000305s-.40000075 2.0999952-1.20000076 2.79999519-1.7999996 1.20000458-2.89999962 1.20000458c-1 0-2.1000002-.40000457-2.80000019-1.20000458z" transform="translate(17.099976 99.812195)"/><path d="m1.19999695 6.87499523c-.69999695-.80000001-1.19999695-1.79999542-1.19999695-2.79999542 0-.30000001 0-.5000028.09999847-.80000281 0-.30000002.09999695-.50000304.19999695-.80000306.1-.2.20000458-.49999694.40000153-.69999694.1-.20000001.30000305-.39999848.5-.59999848.2-.2.39999847-.40000006.59999847-.50000006.20000458-.1.50000458-.30000152.70000458-.40000152s.5-.19999694.79999542-.19999694c.5-.1 1.09999848-.1 1.59999848 0 .30000001 0 .50000304.09999694.80000305.19999694.2.1.49999694.20000152.69999695.40000152.2.1.4000061.30000006.6000061.50000006s.3.39999847.5.59999848c.1.2.29999389.39999693.3999939.69999694.1000061.30000002.20000457.50000304.20000457.80000306 0 .30000001.09999848.5000028.09999848.80000281 0 1-.39999694 2.09999543-1.19999695 2.79999542-1 .69999999-2 1.20000458-3 1.20000458-1.10000002 0-2.10000306-.40000457-2.80000305-1.20000458z" transform="translate(99.800049 99.712219)"/><path d="m1.19999981 6.87499905c-.80000001-.69999999-1.19999981-1.79999924-1.19999981-2.79999924 0-.30000001 0-.50000089.09999943-.80000091 0-.2.09999981-.49999922.19999981-.79999923.1-.20000001.20000076-.49999981.40000057-.69999981.1-.20000001.30000019-.40000038.5-.60000038.2-.20000001.39999942-.40000006.59999943-.50000006.20000076-.20000001.50000076-.29999962.70000076-.39999962s.5-.1999998.69999886-.1999998c.5-.1 1.00000035-.1 1.60000038 0 .20000076.1.50000076.0999998.70000076.1999998s.5.19999961.69999886.39999962c.2.1.40000037.30000005.60000038.50000006.20000076.2.4.40000037.5.60000038.1.2.29999961.4999998.39999962.69999981.1.2.20000076.49999922.20000076.79999923 0 .30000002.10000038.5000009.10000038.80000091 0 1.10000002-.40000075 2.09999925-1.20000076 2.79999924-.69999999.80000001-1.69999922 1.20000076-2.79999924 1.20000076s-2.1000002-.40000075-2.80000019-1.20000076z" transform="translate(17.099976 17.012207)"/><path d="m1.19999695 6.88721609c-.80000001-.69999999-1.19999695-1.79999924-1.19999695-2.79999924 0-.30000001 0-.50000304.09999847-.80000305.10000001-.2.09999695-.49999922.19999695-.79999923.1-.20000001.20000458-.50000076.40000153-.70000077.1-.2.30000305-.39999847.5-.59999847.2-.2.39999847-.30000006.59999847-.50000006.20000458-.1.50000458-.3000015.70000458-.4000015s.5-.19999695.79999542-.19999695c1.29999995-.30000002 2.70000458.19999853 3.60000611 1.09999851.2.2.39999999.39999847.5.59999847.09999847.20000001.29999389.50000076.39999389.70000077.1.2.20000458.49999922.20000458.79999923s.09999847.50000304.09999847.80000305c0 1-.39999693 2.09999925-1.19999694 2.79999924-.90000153.80000001-1.90000153 1.20000029-2.90000153 1.20000029-1.10000002 0-2.10000306-.40000028-2.80000305-1.20000029z" transform="translate(116.900024 58.299988)"/><path d="m1.19999695 6.78721666c-.19999695-.2-.3-.3999999-.5-.5999999-.1-.2-.29999771-.3999998-.39999771-.69999981-.1-.2-.20000077-.50000018-.20000077-.80000019s-.09999847-.49999994-.09999847-.79999995c0-1 .39999694-2.10000021 1.19999695-2.80000019.2-.10000001.40000228-.2999998.60000229-.3999998.20000076-.1.40000075-.30000012.70000076-.40000013.2-.1.5-.20000004.79999924-.20000004 1.29999995-.30000002 2.70000076.20000013 3.59999847 1.10000011.69999999.69999999 1.10000229 1.79999995 1.10000229 2.79999995 0 .30000001 0 .49999994-.10000229.79999995 0 .30000002-.10000076.50000018-.20000076.80000019-.1.20000001-.19999695.39999991-.29999924.59999991-.1.2-.3.3999999-.5.5999999-.2.20000001-.39999771.3-.59999847.5-.20000001.20000001-.50000076.3000001-.70000077.4000001-.2.1-.49999922.20000028-.79999923.20000028-.20000001.09999991-.49999923.09999991-.79999924.09999991-1 0-2.10000306-.40000027-2.80000305-1.20000029z" transform="translate(58.400024)"/><path d="m3.29999924 7.88721991c-.20000001-.10000001-.49999923-.10000458-.79999924-.20000458-.2-.1-.5-.20000152-.70000076-.40000153-.20000001-.1-.39999847-.29999999-.59999848-.5-.20000076-.2-.29999999-.39999847-.5-.59999847-.1-.2-.30000152-.39999694-.40000152-.69999695-.1-.2-.19999695-.50000457-.19999695-.70000458 0-.30000001-.10000229-.49999541-.10000229-.79999542 0-1 .40000075-2.10000306 1.20000076-2.80000305.20000001-.2.39999847-.40000006.59999848-.50000006.20000076-.2.40000075-.3000015.70000076-.4000015.2-.1.5-.19999695.79999924-.19999695 1.29999995-.30000002 2.70000076.19999853 3.60000229 1.09999851.2.2.39999999.39999847.5.59999847.09999847.20000001.29999771.50000458.39999771.70000458s.20000076.49999541.20000076.79999542c.10000229.30000001.10000229.50000304.10000229.80000305 0 .30000002 0 .50000304-.10000229.80000306 0 .2-.10000076.49999694-.20000076.69999694-.1.20000001-.19999771.49999695-.39999771.69999695-.10000001.20000001-.3.4000061-.5.60000611-.69999999.60000002-1.69999922 1.09999847-2.79999924 1.09999847-.30000001 0-.50000304 0-.80000305-.09999847z" transform="translate(58.300049 116.900024)"/><path d="m1.20000005 6.88721609c-.80000001-.69999999-1.20000005-1.69999921-1.20000005-2.79999924 0-.30000001 0-.50000304.0999999-.80000305 0-.2.10000005-.49999922.20000005-.79999923.1-.20000001.20000005-.50000076.4000001-.70000077.1-.2.29999995-.39999847.5-.59999847.2-.2.3999999-.30000006.5999999-.50000006.20000005-.1.50000005-.3000015.70000005-.4000015s.5-.19999695.79999995-.19999695c1.29999995-.30000002 2.70000005.19999853 3.60000015 1.09999851.0999999.30000001.30000009.50000076.40000009.70000076s.29999962.50000076.39999962.70000076c.1.20000001.20000029.49999923.20000029.79999924.0999999.2.0999999.50000076.0999999.70000076 0 1-.3999998 2.09999925-1.19999981 2.79999924-.69999999.80000001-1.80000019 1.20000029-2.80000019 1.20000029-1.10000002 0-2.09999996-.40000028-2.79999995-1.20000029z" transform="translate(0 58.299988)"/><path d="m3.30000305 7.98721647c-.30000305-.1-.50000304-.10000076-.80000305-.20000076-.2-.1-.5-.19999962-.69999695-.39999962-.2-.1-.39999847-.3-.59999847-.5-.70000458-.69999999-1.20000458-1.79999924-1.20000458-2.79999924 0-.30000001 0-.50000137.1000061-.80000138 0-.2.09999695-.49999922.19999695-.79999924.1-.2.19999695-.49999968.40000153-.69999969.1-.2.29999542-.40000037.5-.60000038.2-.2.39999847-.4.59999847-.5.19999695-.2.49999695-.29999964.69999695-.39999965.2-.1.5-.19999979.80000305-.19999979 1.29999995-.30000001 2.69999695.19999947 3.59999848 1.09999944.2.20000001.29999999.40000038.5.60000038.09999847.20000001.30000152.49999969.40000152.69999969.1.20000001.19999695.49999923.19999695.79999924s.1000061.50000137.1000061.80000138c0 1.10000003-.40000456 2.09999925-1.20000457 2.79999924-.80000002.80000001-1.79999543 1.20000029-2.79999543 1.20000029-.30000001 0-.50000304 0-.80000305-.09999991z" transform="translate(99.699951 17)"/><path d="m1.19999981 6.77499676c-.80000001-.80000001-1.19999981-1.79999519-1.19999981-2.79999519s.3999998-2.10000306 1.19999981-2.80000305c.2-.2.39999942-.40000006.59999943-.50000006.20000076-.1.50000076-.30000152.70000076-.40000152s.5-.19999694.79999924-.19999694c.5-.1 1.00000035-.1 1.60000038 0 .2 0 .50000076.09999694.70000076.19999694s.49999885.20000152.69999886.40000152c.20000076.1.40000038.30000006.60000038.50000006.80000001.80000001 1.20000076 1.80000305 1.20000076 2.80000305s-.40000075 2.0999952-1.20000076 2.79999519-1.7999996 1.20000458-2.89999962 1.20000458c-1 0-2.1000002-.40000457-2.80000019-1.20000458z" transform="translate(17.099976 99.812195)"/><path d="m1.19999695 6.87499523c-.69999695-.80000001-1.19999695-1.79999542-1.19999695-2.79999542 0-.30000001 0-.5000028.09999847-.80000281 0-.30000002.09999695-.50000304.19999695-.80000306.1-.2.20000458-.49999694.40000153-.69999694.1-.20000001.30000305-.39999848.5-.59999848.2-.2.39999847-.40000006.59999847-.50000006.20000458-.1.50000458-.30000152.70000458-.40000152s.5-.19999694.79999542-.19999694c.5-.1 1.09999848-.1 1.59999848 0 .30000001 0 .50000304.09999694.80000305.19999694.2.1.49999694.20000152.69999695.40000152.2.1.4000061.30000006.6000061.50000006s.3.39999847.5.59999848c.1.2.29999389.39999693.3999939.69999694.1000061.30000002.20000457.50000304.20000457.80000306 0 .30000001.09999848.5000028.09999848.80000281 0 1-.39999694 2.09999543-1.19999695 2.79999542-1 .69999999-2 1.20000458-3 1.20000458-1.10000002 0-2.10000306-.40000457-2.80000305-1.20000458z" transform="translate(99.800049 99.712219)"/><path d="m1.19999981 6.87499905c-.80000001-.69999999-1.19999981-1.79999924-1.19999981-2.79999924 0-.30000001 0-.50000089.09999943-.80000091 0-.2.09999981-.49999922.19999981-.79999923.1-.20000001.20000076-.49999981.40000057-.69999981.1-.20000001.30000019-.40000038.5-.60000038.2-.20000001.39999942-.40000006.59999943-.50000006.20000076-.20000001.50000076-.29999962.70000076-.39999962s.5-.1999998.69999886-.1999998c.5-.1 1.00000035-.1 1.60000038 0 .20000076.1.50000076.0999998.70000076.1999998s.5.19999961.69999886.39999962c.2.1.40000037.30000005.60000038.50000006.20000076.2.4.40000037.5.60000038.1.2.29999961.4999998.39999962.69999981.1.2.20000076.49999922.20000076.79999923 0 .30000002.10000038.5000009.10000038.80000091 0 1.10000002-.40000075 2.09999925-1.20000076 2.79999924-.69999999.80000001-1.69999922 1.20000076-2.79999924 1.20000076s-2.1000002-.40000075-2.80000019-1.20000076z" transform="translate(17.099976 17.012207)"/></g><path d="m62.0000496 103.987228c-23.5825596 0-42.7000008-18.848806-42.7000008-42.0999943 0-23.2511882 19.1174412-42.1000023 42.7000008-42.1000023s42.6999934 18.8488141 42.6999934 42.1000023c0 23.2511883-19.1174338 42.0999943-42.6999934 42.0999943z" fill="url(#a)"/></g></svg>