<svg height="143" viewBox="0 0 169 143" width="169" xmlns="http://www.w3.org/2000/svg" xmlns:xlink="http://www.w3.org/1999/xlink"><linearGradient id="a" x1="50.014873%" x2="50.014873%" y1="99.910653%" y2=".003895%"><stop offset="0" stop-color="#ffc14c"/><stop offset="1" stop-color="#ffd04d"/></linearGradient><g fill="none" fill-rule="evenodd"><g fill="#ffc44c"><path d="m3.30004883 7.9872098c-.30000001 0-.50004882-.09998169-.80004883-.19998169-.2-.1-.49995117-.20002441-.69995117-.40002442-.2-.2-.40009766-.29999999-.60009766-.5-.2-.2-.29999999-.39997558-.5-.59997558-.1-.20000001-.29990234-.50001221-.39990234-.70001221s-.20007324-.49998778-.20007324-.79998779-.09997559-.50001806-.09997559-.80001807c0-1.10000003.39995116-2.09998793 1.19995117-2.79998792.2-.2.40009766-.39999999.60009766-.5.2-.1.49995117-.29999386.69995117-.39999386s.50004882-.20001222.80004883-.20001222c1.29999995-.30000001 2.69997561.20000611 3.59997558 1.10000608.69999999.69999999 1.19995118 1.79998792 1.19995118 2.79998792 0 .30000001 0 .50001806-.09997559.80001807 0 .30000001-.09995117.49998778-.19995117.79998779-.1.2-.20002441.5000122-.40002442.70001221-.1.2-.29999999.39997558-.5.59997558-.69999998.80000002-1.7000488 1.20001269-2.80004882 1.20001269-.30000002 0-.49992675 0-.79992676-.10000658z" fill-rule="nonzero" transform="translate(42.5)"/><path d="m3.30004883 8.1000061c-.30000001 0-.50004882-.09998168-.80004883-.19998169-.2-.1-.49995117-.20002441-.69995117-.40002441-.2-.1-.40009766-.3-.60009766-.5s-.4-.39997558-.5-.59997559c-.1-.2-.29990234-.5000122-.39990234-.7000122-.1-.20000001-.20007324-.49998778-.20007324-.7999878 0-.30000001-.09997559-.50001829-.09997559-.80001831 0-.30000001 0-.49998778.09997559-.79998779 0-.30000001.10007324-.5000183.20007324-.80001831.1-.2.19990234-.49998169.39990234-.69998169.1-.2.3-.4000061.5-.6000061.69999999-.69999999 1.80004883-1.20001221 2.80004883-1.20001221s2.10004884.4000122 2.80004883 1.20001221c.2.2.3.4000061.5.6000061.1.2.29990234.49998169.39990234.69998169s.20007324.5000183.20007324.80001831.09997559.49998778.09997559.79998779c0 .30000002 0 .5000183-.09997559.80001831-.1.30000002-.10007324.49998779-.20007324.7999878-.1.2-.19990234.5000122-.39990234.7000122-.1.20000001-.3.39997559-.5.59997559s-.40009766.4-.60009766.5-.49995117.30002441-.69995117.40002441c-.2.10000001-.50004882.19998169-.80004883.19998169-.1.10000611-.29997557.10000611-.59997558.10000611-.30000002 0-.49992675 0-.79992676-.10000611z" fill-rule="nonzero" transform="translate(0 42.387207)"/><path d="m3.30004883 7.97499371c-.30000001 0-.50004882-.09998169-.80004883-.19998169-.2-.10000001-.49995117-.1999939-.69995117-.3999939-.2-.1-.39997558-.3-.59997559-.5-.2-.2-.29999999-.4000061-.5-.6000061-.1-.20000001-.30002441-.4000122-.40002441-.70001221-.1-.2-.20007324-.49998169-.20007324-.69998169-.09997559-.30000001-.09997559-.5000183-.09997559-.80001831s0-.49998754.09997559-.79998756c0-.2.10007324-.50001829.20007324-.80001831.1-.2.20002441-.49998168.40002441-.69998169.20000001-.2.3-.4000061.5-.6000061.20000001-.2.39997559-.40000006.59997559-.50000006.2-.2.39995116-.29999389.69995117-.39999389.30000001-.10000001.50004882-.2000122.80004883-.2000122.5-.1.99997556-.1 1.59997558 0 .20000001 0 .50004882.10001219.80004883.2000122.20000001.1.49995117.19999389.69995117.39999389.20000001.1.39997559.30000006.59997559.50000006.69999999.69999999 1.20007324 1.79998779 1.20007324 2.79998779 0 .30000002-.00009765.50001806-.10009765.80001808 0 .2-.09995117.49998168-.19995118.69998169-.1.2-.20002441.5000122-.40002441.7000122-.1.20000001-.3.4000061-.5.60000611-.80000001.89999997-1.80002439 1.29998779-2.90002441 1.29998779-.30000002 0-.49992675 0-.79992676-.1000061z" fill-rule="nonzero" transform="translate(72.599976 12.412231)"/><path d="m1.20007324 6.90002441c-.2-.2-.4-.4000061-.5-.6000061-.2-.2-.30002441-.5000122-.40002441-.70001221-.1-.2-.20007324-.49998778-.20007324-.79998779-.09997559-.30000001-.09997559-.5000183-.09997559-.80001831 0-1.10000002.40007323-2.0999878 1.20007324-2.79998779.69999999-.80000001 1.79992676-1.20001221 2.79992676-1.20001221 1.10000002 0 2.10004884.4000122 2.80004883 1.20001221.80000001.69999999 1.19995117 1.79998779 1.19995117 2.79998779 0 .30000001 0 .5000183-.09997559.80001831-.1.2-.09995117.49998778-.19995117.79998779-.1.20000001-.20002441.50001221-.40002441.70001221s-.3.4000061-.5.6000061c-.69999999.80000002-1.80004883 1.19998169-2.80004883 1.19998169-1.10000002 0-2.09992677-.39998167-2.79992676-1.19998169z" fill-rule="nonzero" transform="translate(12.599976 12.387207)"/><path d="m3.30004883 7.9872098c-.30000001 0-.50004882-.09998169-.80004883-.19998169-.2-.1-.49995117-.20002441-.69995117-.40002442-.2-.2-.40009766-.29999999-.60009766-.5-.2-.2-.29999999-.39997558-.5-.59997558-.1-.20000001-.29990234-.50001221-.39990234-.70001221s-.20007324-.49998778-.20007324-.79998779-.09997559-.50001806-.09997559-.80001807c0-1.10000003.39995116-2.09998793 1.19995117-2.79998792.2-.2.40009766-.39999999.60009766-.5.2-.1.49995117-.29999386.69995117-.39999386s.50004882-.20001222.80004883-.20001222c1.29999995-.30000001 2.69997561.20000611 3.59997558 1.10000608.69999999.69999999 1.19995118 1.79998792 1.19995118 2.79998792 0 .30000001 0 .50001806-.09997559.80001807 0 .30000001-.09995117.49998778-.19995117.79998779-.1.2-.20002441.5000122-.40002442.70001221-.1.2-.29999999.39997558-.5.59997558-.69999998.80000002-1.7000488 1.20001269-2.80004882 1.20001269-.30000002 0-.49992675 0-.79992676-.10000658z" fill-rule="nonzero" transform="translate(42.5)"/><path d="m3.30004883 8.1000061c-.30000001 0-.50004882-.09998168-.80004883-.19998169-.2-.1-.49995117-.20002441-.69995117-.40002441-.2-.1-.40009766-.3-.60009766-.5s-.4-.39997558-.5-.59997559c-.1-.2-.29990234-.5000122-.39990234-.7000122-.1-.20000001-.20007324-.49998778-.20007324-.7999878 0-.30000001-.09997559-.50001829-.09997559-.80001831 0-.30000001 0-.49998778.09997559-.79998779 0-.30000001.10007324-.5000183.20007324-.80001831.1-.2.19990234-.49998169.39990234-.69998169.1-.2.3-.4000061.5-.6000061.69999999-.69999999 1.80004883-1.20001221 2.80004883-1.20001221s2.10004884.4000122 2.80004883 1.20001221c.2.2.3.4000061.5.6000061.1.2.29990234.49998169.39990234.69998169s.20007324.5000183.20007324.80001831.09997559.49998778.09997559.79998779c0 .30000002 0 .5000183-.09997559.80001831-.1.30000002-.10007324.49998779-.20007324.7999878-.1.2-.19990234.5000122-.39990234.7000122-.1.20000001-.3.39997559-.5.59997559s-.40009766.4-.60009766.5-.49995117.30002441-.69995117.40002441c-.2.10000001-.50004882.19998169-.80004883.19998169-.1.10000611-.29997557.10000611-.59997558.10000611-.30000002 0-.49992675 0-.79992676-.10000611z" fill-rule="nonzero" transform="translate(0 42.387207)"/><path d="m3.30004883 7.97499371c-.30000001 0-.50004882-.09998169-.80004883-.19998169-.2-.10000001-.49995117-.1999939-.69995117-.3999939-.2-.1-.39997558-.3-.59997559-.5-.2-.2-.29999999-.4000061-.5-.6000061-.1-.20000001-.30002441-.4000122-.40002441-.70001221-.1-.2-.20007324-.49998169-.20007324-.69998169-.09997559-.30000001-.09997559-.5000183-.09997559-.80001831s0-.49998754.09997559-.79998756c0-.2.10007324-.50001829.20007324-.80001831.1-.2.20002441-.49998168.40002441-.69998169.20000001-.2.3-.4000061.5-.6000061.20000001-.2.39997559-.40000006.59997559-.50000006.2-.2.39995116-.29999389.69995117-.39999389.30000001-.10000001.50004882-.2000122.80004883-.2000122.5-.1.99997556-.1 1.59997558 0 .20000001 0 .50004882.10001219.80004883.2000122.20000001.1.49995117.19999389.69995117.39999389.20000001.1.39997559.30000006.59997559.50000006.69999999.69999999 1.20007324 1.79998779 1.20007324 2.79998779 0 .30000002-.00009765.50001806-.10009765.80001808 0 .2-.09995117.49998168-.19995118.69998169-.1.2-.20002441.5000122-.40002441.7000122-.1.20000001-.3.4000061-.5.60000611-.80000001.89999997-1.80002439 1.29998779-2.90002441 1.29998779-.30000002 0-.49992675 0-.79992676-.1000061z" fill-rule="nonzero" transform="translate(72.599976 12.412231)"/><path d="m1.20007324 6.90002441c-.2-.2-.4-.4000061-.5-.6000061-.2-.2-.30002441-.5000122-.40002441-.70001221-.1-.2-.20007324-.49998778-.20007324-.79998779-.09997559-.30000001-.09997559-.5000183-.09997559-.80001831 0-1.10000002.40007323-2.0999878 1.20007324-2.79998779.69999999-.80000001 1.79992676-1.20001221 2.79992676-1.20001221 1.10000002 0 2.10004884.4000122 2.80004883 1.20001221.80000001.69999999 1.19995117 1.79998779 1.19995117 2.79998779 0 .30000001 0 .5000183-.09997559.80001831-.1.2-.09995117.49998778-.19995117.79998779-.1.20000001-.20002441.50001221-.40002441.70001221s-.3.4000061-.5.6000061c-.69999999.80000002-1.80004883 1.19998169-2.80004883 1.19998169-1.10000002 0-2.09992677-.39998167-2.79992676-1.19998169z" fill-rule="nonzero" transform="translate(12.599976 12.387207)"/><path d="m3.20007324 7.97499371c-.2 0-.50007324-.10001221-.70007324-.20001221s-.49995117-.19999389-.69995117-.3999939c-.2-.1-.39997558-.29999999-.59997559-.5-.2-.2-.4-.4000061-.5-.6000061-.2-.2-.30002441-.49998169-.40002441-.69998169s-.20007324-.5000183-.20007324-.80001831c-.09997559-.30000001-.09997559-.49998754-.09997559-.79998756 0-1.10000002.40007323-2.0999878 1.20007324-2.79998779.20000001-.2.39997559-.30000005.59997559-.50000006.2-.1.49995117-.30002441.69995117-.40002441s.50004882-.19998168.80004883-.19998168c.5-.1.99997556-.1 1.59997558 0 .20000001 0 .49995117.09998168.69995118.19998168.2.1.50007324.20002441.70007324.40002441.2.20000001.39997558.30000006.59997558.50000006.80000002.80000001 1.19995118 1.79998779 1.19995118 2.79998779 0 .30000002 0 .49998755-.09997559.79998756 0 .2-.09995117.5000183-.19995117.80001831-.1.2-.20002441.49998169-.40002442.69998169-.2.2-.29999999.4000061-.5.6000061-.2.20000001-.39997558.3-.59997558.5-.2.1-.50007324.2999939-.70007324.3999939-.20000001.1-.49995117.20001221-.69995118.20001221-.4.1000061-.70002441.1000061-.90002441.1000061-.30000001 0-.49992675 0-.79992676-.1000061z" fill-rule="nonzero" transform="translate(7.599976 71.612183)"/></g><path d="m46.5 77.5872192c-16.8999138 0-30.5999756-13.9239502-30.5999756-31.1000061s13.7000618-31.1000061 30.5999756-31.1000061 30.5999756 13.9239502 30.5999756 31.1000061-13.7000618 31.1000061-30.5999756 31.1000061z" fill="url(#a)"/><g fill-rule="nonzero" transform="translate(24.641113 24.602173)"><path d="m108.334885 32.8470459c-2.2-18-17.0000004-31.99999857-35.5000004-32.79999858-10-.5-19.6000037 3.0000003-27.0000038 9.80000049-6.9000001 6.30000019-11.1 14.80000019-12 24.10000039-17.7999992-.8-32.99999815 13-33.79999816 30.7999992-.5 10.8000002 4.40000048 21 13.10000026 27.5.7.5 1.4999997.7999954 2.3999996.7999954 1.2000001 0 2.3999998-.5999984 3.1999999-1.5999984 1.2999999-1.8.9000008-4.2999985-.7999993-5.5999985-6.5999999-4.9000001-10.20000057-12.5999966-9.90000055-20.6999969.60000002-13.3999997 12.00000095-23.8999993 25.40000055-23.2999993 8.5.4 15.9999972 5 20.199997 12.5 1.1 1.9 3.5000015 2.6 5.4000015 1.5s2.6-3.5000015 1.5-5.4000015c-4.1999998-7.5-11.0000014-12.8000007-18.9000015-15.2000008 1.2999999-15.8000002 14.9000034-28.00000015 30.800003-27.30000017 15.8000002.69999999 28.1999969 13.70000077 28.1999969 29.50000097 0 1.2.6 2.3999985 1.5 3.0999985 1 .8 2.200002 1.000003 3.400002.800003 2.2-.5 4.499996-.7000023 6.699997-.6000023 13.399999.6 23.900003 12.0000019 23.300003 25.4000016-.4 9.1999998-5.899997 17.2999985-14.199997 21.0999984-2 .9-2.9 3.2999954-2 5.2999954.7 1.5 2.099998 2.3000031 3.599998 2.3000031.6 0 1.099997-.1000015 1.699997-.4000015 11.1-5.0999999 18.400002-15.8000002 18.900002-28 .8-17.7999993-13.100003-32.899997-30.900002-33.699997-1.4-.1-2.899995-.0000015-4.299995.0999985z" fill="#2f2f2f"/><g fill="#57aaff"><path d="m1.20000005 27.2628078c-1.60000003-1.6-1.60000003-4.1000045 0-5.7000045l20.50000075-20.40000108c1.6-1.60000002 4.0999969-1.5 5.6999969 0 1.6000023 1.60000002 1.6000023 4.10000455 0 5.70000458l-20.50000094 20.400001c-.89999676.8000001-1.89999676 1.199997-2.89999676 1.199997s-2.09999996-.3999969-2.79999995-1.199997z" transform="translate(83.634888 86.984253)"/><path d="m1.20000005 26.9000053c-1.60000003-1.6-1.60000003-4.1000045 0-5.7000045l19.69999955-20.00000075c1.6000004-1.60000003 4.1000004-1.60000003 5.7000008 0 1.6 1.60000002 1.6 4.10000431 0 5.70000434l-19.70000174 20.00000091c-.80000001.8000001-1.79999935 1.199997-2.89999866 1.199997-1 0-2-.3999969-2.79999995-1.199997z" transform="translate(17.934875 80.847046)"/><path d="m1.21280169 21.6128025c-1.60000002-1.5-1.59999847-4.1000036-.09999847-5.7000036l14.19999718-14.69999721c1.5-1.60000002 4.099996-1.59999847 5.699996-.09999847s1.6000061 4.09999716.1000061 5.69999719l-14.20000362 14.70000359c-.80000001.8-1.90000152 1.199997-2.90000152 1.199997s-1.99999565-.3999985-2.79999567-1.0999985z" transform="translate(85.222046 65.734253)"/><path d="m1.2128036 21.6128025c-1.60000002-1.5-1.60000229-4.1000036-.10000229-5.7000036l14.20000099-14.69999721c1.5-1.60000002 4.099996-1.59999847 5.699996-.09999847s1.6000061 4.09999716.1000061 5.69999719l-14.20000361 14.69999599c-.80000001.8-1.79999769 1.2000046-2.89999771 1.2000046-1 0-1.99999947-.3999985-2.79999948-1.0999985z" transform="translate(54.222107 95.134277)"/><path d="m1.21280169 21.6128025c-1.60000002-1.5-1.59999847-4.099996-.09999847-5.699996l14.20000098-14.70000481c1.5-1.60000002 4.099996-1.59999847 5.699996-.09999847s1.5999985 4.09999716.0999985 5.69999719l-14.199996 14.70000359c-.80000002.8-1.90000153 1.199997-2.90000153 1.199997s-1.99999946-.3999985-2.79999948-1.0999985z" transform="translate(52.62207 70.334229)"/></g></g></g></svg>