<svg height="110" viewBox="0 0 132 110" width="132" xmlns="http://www.w3.org/2000/svg"><g fill="#2f2f2f"><path d="m10.0999756 44.3424492c-2.09999992 0-4.19997562-.0999756-6.0999756-.0999756-2.20000005 0-4-1.8-4-4s1.79999995-4 4-4c2.0999999 0 4.19998789-.0000244 6.2999878.0999756 10.5.2 21.299963.4999757 29.3999634-4.9000244 4.5-3 7.0000244-7.9999514 6.4000244-13.1999512-.5-4.4000001-3.1000123-7.9000244-7.2000122-9.40002441-4.3000002-1.39999998-8.3999877-.80002451-11.2999878 1.59997561-2.8 2.4000001-3.9999878 6.2000489-3.2999878 10.3000488.4 2.2-1.0999878 4.1999756-3.2999878 4.5999756s-4.2000366-1.0999267-4.6000366-3.2999268c-1.2000001-6.9000001 1.0999999-13.50007293 6-17.70007273 5.0999999-4.4000001 12.1000366-5.49997581 19.1000366-3.09997571h.0999756c6.9000001 2.5999999 11.6000244 8.49999964 12.4000244 15.99999964.9 8.1999998-2.9000244 16.2000489-9.9000244 20.8000488-8.1999998 5.5999999-17.9999876 6.3999024-27.2999878 6.3999024-2.3 0-4.5000122-.0999756-6.7000122-.0999756z" transform="translate(73.639771 16.357544)"/><path d="m4 8c-2.20000005 0-4-1.79999995-4-4s1.79999995-4 4-4h37.0999756c2.2 0 4 1.79999995 4 4s-1.8 4-4 4z" transform="translate(20.739746 53.799927)"/><path d="m68.864624 33.9944229c-4.0999999-1.1-7.600016-4.1000018-9.200016-8.0000019-.8-2 .1000123-4.3999512 2.2000122-5.1999512 2-.8999999 4.400016.0999513 5.200016 2.1999512.7 1.6 2.0999878 2.9000244 3.7999878 3.4000244 2.8.7 5.6000366-.7999756 6.6000366-3.5999756 1-2.9000001-.5000366-6.2000732-2.1000366-8.2000732-2.7-3.4000001-8.5000038-5.49995119-17.0000038-6.19995118-18.5-1.60000002-37.4000125 1.29995108-53.70001172 4.19995118-2.20000005.4-4.19997573-1.0999267-4.59997574-3.29992677-.4-2.20000004 1.09998766-4.19997558 3.29998771-4.59997558 16.79999925-2.9000001 36.29998755-5.90007311 55.79998755-4.20007307 10.8000002.89999998 18.4000406 4.00007326 22.6000404 9.20007307 3.8 4.80000015 5.0999635 10.79992675 3.3999634 15.79992675-2.0999999 5.4000001-7.1999636 8.9000263-12.8999634 8.9000263-1.1 0-2.3000244-.1000244-3.4000244-.4000244z" transform="translate(.675049 74.705566)"/><path d="m4 8c-2.20000005 0-4-1.79999995-4-4s1.79999995-4 4-4h26.6000366c2.2000001 0 4 1.79999995 4 4s-1.7999999 4-4 4z" transform="translate(96.839722 74.900024)"/><path d="m23.4397335 37-1.9000244-.5c-4.0999999-1-6.9999633-1.7999756-9.8999634-2.5999756-2.49999999-.7-5.10003613-1.5000488-8.60003613-2.3000488-2.09999991-.5-3.49996345-2.7000489-2.89996343-4.8000488.5-2.0999999 2.69998794-3.4999024 4.79998784-2.8999024 3.59999991.9 6.29996302 1.6999024 8.89996292 2.3999024 2.9000001.8 5.5999999 1.6 9.5 2.5l2 .5c6.0999999 1.5 12.4000263 3 17.9000263 2 5.3000002-.9 10.7000122-5.2999511 10.7000122-11.6999512 0-3.0999999-1.2000244-5.9999511-3.4000244-8.1999512-2.2-2.20000003-5.1000123-3.4000244-8.2000122-3.4000244-4.9000001 0-8.7999878 3.9999266-8.7999878 8.7999268v.2000732c0 2.2-1.8000019 4-4.0000019 4-2.2000001 0-4-1.8-4-4v-.2000732c0-9.30000023 7.5999899-16.7999268 16.7999897-16.7999268 5.1999998 0 10.1000488 1.99995112 13.8000488 5.69995117 3.7000001 3.70000005 5.6999512 8.60004903 5.6999512 13.80004883 0 9.6000004-7.299963 17.7999756-17.3999634 19.5999756-1.5.3-3.2000244.4000244-4.9000244.4000244-5.5 0-10.9999776-1.3-16.0999775-2.5z"/></g></svg>